<?xml version="1.0" standalone="no"?>
<!DOCTYPE svg PUBLIC "-//W3C//DTD SVG 1.1//EN" "http://www.w3.org/Graphics/SVG/1.1/DTD/svg11.dtd">
<svg version="1.1" width="1200" height="214" onload="init(evt)" viewBox="0 0 1200 214" xmlns="http://www.w3.org/2000/svg" xmlns:xlink="http://www.w3.org/1999/xlink">
<!-- Flame graph stack visualization. See https://github.com/brendangregg/FlameGraph for latest version, and http://www.brendangregg.com/flamegraphs.html for examples. -->
<!-- NOTES:  -->
<defs>
	<linearGradient id="background" y1="0" y2="1" x1="0" x2="0" >
		<stop stop-color="#eeeeee" offset="5%" />
		<stop stop-color="#eeeeb0" offset="95%" />
	</linearGradient>
</defs>
<style type="text/css">
	text { font-family:Verdana; font-size:12px; fill:rgb(0,0,0); }
	#search { opacity:0.1; cursor:pointer; }
	#search:hover, #search.show { opacity:1; }
	#subtitle { text-anchor:middle; font-color:rgb(160,160,160); }
	#title { text-anchor:middle; font-size:17px}
	#unzoom { cursor:pointer; }
	#frames > *:hover { stroke:black; stroke-width:0.5; cursor:pointer; }
	.hide { display:none; }
	.parent { opacity:0.5; }
</style>
<script type="text/ecmascript">
<![CDATA[
	"use strict";
	var details, searchbtn, unzoombtn, matchedtxt, svg, searching;
	function init(evt) {
		details = document.getElementById("details").firstChild;
		searchbtn = document.getElementById("search");
		unzoombtn = document.getElementById("unzoom");
		matchedtxt = document.getElementById("matched");
		svg = document.getElementsByTagName("svg")[0];
		searching = 0;
	}

	window.addEventListener("click", function(e) {
		var target = find_group(e.target);
		if (target) {
			if (target.nodeName == "a") {
				if (e.ctrlKey === false) return;
				e.preventDefault();
			}
			if (target.classList.contains("parent")) unzoom();
			zoom(target);
		}
		else if (e.target.id == "unzoom") unzoom();
		else if (e.target.id == "search") search_prompt();
	}, false)

	// mouse-over for info
	// show
	window.addEventListener("mouseover", function(e) {
		var target = find_group(e.target);
		if (target) details.nodeValue = "Function: " + g_to_text(target);
	}, false)

	// clear
	window.addEventListener("mouseout", function(e) {
		var target = find_group(e.target);
		if (target) details.nodeValue = ' ';
	}, false)

	// ctrl-F for search
	window.addEventListener("keydown",function (e) {
		if (e.keyCode === 114 || (e.ctrlKey && e.keyCode === 70)) {
			e.preventDefault();
			search_prompt();
		}
	}, false)

	// functions
	function find_child(node, selector) {
		var children = node.querySelectorAll(selector);
		if (children.length) return children[0];
		return;
	}
	function find_group(node) {
		var parent = node.parentElement;
		if (!parent) return;
		if (parent.id == "frames") return node;
		return find_group(parent);
	}
	function orig_save(e, attr, val) {
		if (e.attributes["_orig_" + attr] != undefined) return;
		if (e.attributes[attr] == undefined) return;
		if (val == undefined) val = e.attributes[attr].value;
		e.setAttribute("_orig_" + attr, val);
	}
	function orig_load(e, attr) {
		if (e.attributes["_orig_"+attr] == undefined) return;
		e.attributes[attr].value = e.attributes["_orig_" + attr].value;
		e.removeAttribute("_orig_"+attr);
	}
	function g_to_text(e) {
		var text = find_child(e, "title").firstChild.nodeValue;
		return (text)
	}
	function g_to_func(e) {
		var func = g_to_text(e);
		// if there's any manipulation we want to do to the function
		// name before it's searched, do it here before returning.
		return (func);
	}
	function update_text(e) {
		var r = find_child(e, "rect");
		var t = find_child(e, "text");
		var w = parseFloat(r.attributes.width.value) -3;
		var txt = find_child(e, "title").textContent.replace(/\([^(]*\)$/,"");
		t.attributes.x.value = parseFloat(r.attributes.x.value) + 3;

		// Smaller than this size won't fit anything
		if (w < 2 * 12 * 0.59) {
			t.textContent = "";
			return;
		}

		t.textContent = txt;
		// Fit in full text width
		if (/^ *$/.test(txt) || t.getSubStringLength(0, txt.length) < w)
			return;

		for (var x = txt.length - 2; x > 0; x--) {
			if (t.getSubStringLength(0, x + 2) <= w) {
				t.textContent = txt.substring(0, x) + "..";
				return;
			}
		}
		t.textContent = "";
	}

	// zoom
	function zoom_reset(e) {
		if (e.attributes != undefined) {
			orig_load(e, "x");
			orig_load(e, "width");
		}
		if (e.childNodes == undefined) return;
		for (var i = 0, c = e.childNodes; i < c.length; i++) {
			zoom_reset(c[i]);
		}
	}
	function zoom_child(e, x, ratio) {
		if (e.attributes != undefined) {
			if (e.attributes.x != undefined) {
				orig_save(e, "x");
				e.attributes.x.value = (parseFloat(e.attributes.x.value) - x - 10) * ratio + 10;
				if (e.tagName == "text")
					e.attributes.x.value = find_child(e.parentNode, "rect[x]").attributes.x.value + 3;
			}
			if (e.attributes.width != undefined) {
				orig_save(e, "width");
				e.attributes.width.value = parseFloat(e.attributes.width.value) * ratio;
			}
		}

		if (e.childNodes == undefined) return;
		for (var i = 0, c = e.childNodes; i < c.length; i++) {
			zoom_child(c[i], x - 10, ratio);
		}
	}
	function zoom_parent(e) {
		if (e.attributes) {
			if (e.attributes.x != undefined) {
				orig_save(e, "x");
				e.attributes.x.value = 10;
			}
			if (e.attributes.width != undefined) {
				orig_save(e, "width");
				e.attributes.width.value = parseInt(svg.width.baseVal.value) - (10 * 2);
			}
		}
		if (e.childNodes == undefined) return;
		for (var i = 0, c = e.childNodes; i < c.length; i++) {
			zoom_parent(c[i]);
		}
	}
	function zoom(node) {
		var attr = find_child(node, "rect").attributes;
		var width = parseFloat(attr.width.value);
		var xmin = parseFloat(attr.x.value);
		var xmax = parseFloat(xmin + width);
		var ymin = parseFloat(attr.y.value);
		var ratio = (svg.width.baseVal.value - 2 * 10) / width;

		// XXX: Workaround for JavaScript float issues (fix me)
		var fudge = 0.0001;

		unzoombtn.classList.remove("hide");

		var el = document.getElementById("frames").children;
		for (var i = 0; i < el.length; i++) {
			var e = el[i];
			var a = find_child(e, "rect").attributes;
			var ex = parseFloat(a.x.value);
			var ew = parseFloat(a.width.value);
			var upstack;
			// Is it an ancestor
			if (0 == 0) {
				upstack = parseFloat(a.y.value) > ymin;
			} else {
				upstack = parseFloat(a.y.value) < ymin;
			}
			if (upstack) {
				// Direct ancestor
				if (ex <= xmin && (ex+ew+fudge) >= xmax) {
					e.classList.add("parent");
					zoom_parent(e);
					update_text(e);
				}
				// not in current path
				else
					e.classList.add("hide");
			}
			// Children maybe
			else {
				// no common path
				if (ex < xmin || ex + fudge >= xmax) {
					e.classList.add("hide");
				}
				else {
					zoom_child(e, xmin, ratio);
					update_text(e);
				}
			}
		}
	}
	function unzoom() {
		unzoombtn.classList.add("hide");
		var el = document.getElementById("frames").children;
		for(var i = 0; i < el.length; i++) {
			el[i].classList.remove("parent");
			el[i].classList.remove("hide");
			zoom_reset(el[i]);
			update_text(el[i]);
		}
	}

	// search
	function reset_search() {
		var el = document.querySelectorAll("#frames rect");
		for (var i = 0; i < el.length; i++) {
			orig_load(el[i], "fill")
		}
	}
	function search_prompt() {
		if (!searching) {
			var term = prompt("Enter a search term (regexp " +
			    "allowed, eg: ^ext4_)", "");
			if (term != null) {
				search(term)
			}
		} else {
			reset_search();
			searching = 0;
			searchbtn.classList.remove("show");
			searchbtn.firstChild.nodeValue = "Search"
			matchedtxt.classList.add("hide");
			matchedtxt.firstChild.nodeValue = ""
		}
	}
	function search(term) {
		var re = new RegExp(term);
		var el = document.getElementById("frames").children;
		var matches = new Object();
		var maxwidth = 0;
		for (var i = 0; i < el.length; i++) {
			var e = el[i];
			var func = g_to_func(e);
			var rect = find_child(e, "rect");
			if (func == null || rect == null)
				continue;

			// Save max width. Only works as we have a root frame
			var w = parseFloat(rect.attributes.width.value);
			if (w > maxwidth)
				maxwidth = w;

			if (func.match(re)) {
				// highlight
				var x = parseFloat(rect.attributes.x.value);
				orig_save(rect, "fill");
				rect.attributes.fill.value = "rgb(230,0,230)";

				// remember matches
				if (matches[x] == undefined) {
					matches[x] = w;
				} else {
					if (w > matches[x]) {
						// overwrite with parent
						matches[x] = w;
					}
				}
				searching = 1;
			}
		}
		if (!searching)
			return;

		searchbtn.classList.add("show");
		searchbtn.firstChild.nodeValue = "Reset Search";

		// calculate percent matched, excluding vertical overlap
		var count = 0;
		var lastx = -1;
		var lastw = 0;
		var keys = Array();
		for (k in matches) {
			if (matches.hasOwnProperty(k))
				keys.push(k);
		}
		// sort the matched frames by their x location
		// ascending, then width descending
		keys.sort(function(a, b){
			return a - b;
		});
		// Step through frames saving only the biggest bottom-up frames
		// thanks to the sort order. This relies on the tree property
		// where children are always smaller than their parents.
		var fudge = 0.0001;	// JavaScript floating point
		for (var k in keys) {
			var x = parseFloat(keys[k]);
			var w = matches[keys[k]];
			if (x >= lastx + lastw - fudge) {
				count += w;
				lastx = x;
				lastw = w;
			}
		}
		// display matched percent
		matchedtxt.classList.remove("hide");
		var pct = 100 * count / maxwidth;
		if (pct != 100) pct = pct.toFixed(1)
		matchedtxt.firstChild.nodeValue = "Matched: " + pct + "%";
	}
]]>
</script>
<rect x="0.0" y="0" width="1200.0" height="214.0" fill="url(#background)"  />
<text id="title" x="600.00" y="24" >reversi.mo</text>
<text id="details" x="10.00" y="197" > </text>
<text id="unzoom" x="10.00" y="24" class="hide">Reset Zoom</text>
<text id="search" x="1090.00" y="24" >Search</text>
<text id="matched" x="1090.00" y="197" > </text>
<g id="frames">
<g >
<title>B_eq (14,568 samples, 1.52%)</title><rect x="905.5" y="85" width="18.0" height="15.0" fill="rgb(239,130,38)" rx="2" ry="2" />
<text  x="908.54" y="95.5" ></text>
</g>
<g >
<title>B_mul (4,118 samples, 0.43%)</title><rect x="588.8" y="69" width="5.0" height="15.0" fill="rgb(232,143,30)" rx="2" ry="2" />
<text  x="591.77" y="79.5" ></text>
</g>
<g >
<title>motoko_rts::gc::mark_compact::compacting_gc::h416bfa181cd1565b (4,501 samples, 0.47%)</title><rect x="1184.4" y="117" width="5.6" height="15.0" fill="rgb(227,127,24)" rx="2" ry="2" />
<text  x="1187.42" y="127.5" ></text>
</g>
<g >
<title>memset (468 samples, 0.05%)</title><rect x="1164.6" y="101" width="0.6" height="15.0" fill="rgb(237,144,35)" rx="2" ry="2" />
<text  x="1167.59" y="111.5" ></text>
</g>
<g >
<title>B_eq (1,414 samples, 0.15%)</title><rect x="578.6" y="69" width="1.8" height="15.0" fill="rgb(239,130,38)" rx="2" ry="2" />
<text  x="581.64" y="79.5" ></text>
</g>
<g >
<title>motoko_rts::gc::mark_compact::compacting_gc::h416bfa181cd1565b (5,081 samples, 0.53%)</title><rect x="259.4" y="117" width="6.2" height="15.0" fill="rgb(227,127,24)" rx="2" ry="2" />
<text  x="262.37" y="127.5" ></text>
</g>
<g >
<title>B_eq (6,329 samples, 0.66%)</title><rect x="131.3" y="101" width="7.8" height="15.0" fill="rgb(239,130,38)" rx="2" ry="2" />
<text  x="134.34" y="111.5" ></text>
</g>
<g >
<title>parse_idl_header (1,064 samples, 0.11%)</title><rect x="233.5" y="117" width="1.3" height="15.0" fill="rgb(243,149,41)" rx="2" ry="2" />
<text  x="236.53" y="127.5" ></text>
</g>
<g >
<title>memset (111 samples, 0.01%)</title><rect x="1189.3" y="101" width="0.1" height="15.0" fill="rgb(237,144,35)" rx="2" ry="2" />
<text  x="1192.26" y="111.5" ></text>
</g>
<g >
<title>memcpy (180 samples, 0.02%)</title><rect x="296.1" y="53" width="0.2" height="15.0" fill="rgb(248,144,48)" rx="2" ry="2" />
<text  x="299.12" y="63.5" ></text>
</g>
<g >
<title>opponent (132 samples, 0.01%)</title><rect x="299.9" y="117" width="0.1" height="15.0" fill="rgb(241,199,39)" rx="2" ry="2" />
<text  x="302.88" y="127.5" ></text>
</g>
<g >
<title>$lambda (692,225 samples, 72.25%)</title><rect x="290.6" y="133" width="852.5" height="15.0" fill="rgb(240,133,38)" rx="2" ry="2" />
<text  x="293.63" y="143.5" >$lambda</text>
</g>
<g >
<title>B_add (3,132 samples, 0.33%)</title><rect x="540.9" y="85" width="3.8" height="15.0" fill="rgb(253,143,53)" rx="2" ry="2" />
<text  x="543.85" y="95.5" ></text>
</g>
<g >
<title>@deserialize&lt;III&gt; (5,331 samples, 0.56%)</title><rect x="1143.1" y="133" width="6.6" height="15.0" fill="rgb(243,176,41)" rx="2" ry="2" />
<text  x="1146.15" y="143.5" ></text>
</g>
<g >
<title>render (136,091 samples, 14.20%)</title><rect x="64.4" y="117" width="167.6" height="15.0" fill="rgb(243,181,41)" rx="2" ry="2" />
<text  x="67.42" y="127.5" >render</text>
</g>
<g >
<title>B_sub (1,260 samples, 0.13%)</title><rect x="156.9" y="101" width="1.5" height="15.0" fill="rgb(228,124,25)" rx="2" ry="2" />
<text  x="159.89" y="111.5" ></text>
</g>
<g >
<title>range (2,430 samples, 0.25%)</title><rect x="1140.2" y="101" width="2.9" height="15.0" fill="rgb(247,146,46)" rx="2" ry="2" />
<text  x="1143.15" y="111.5" ></text>
</g>
<g >
<title>motoko_rts::principal_id::principal_of_blob::h6560fd4a9cbb47b9 (1,140 samples, 0.12%)</title><rect x="269.2" y="101" width="1.4" height="15.0" fill="rgb(226,127,24)" rx="2" ry="2" />
<text  x="272.19" y="111.5" ></text>
</g>
<g >
<title>motoko_rts::memory::alloc_blob::hb6bafdc2f27d446b (414 samples, 0.04%)</title><rect x="296.4" y="69" width="0.5" height="15.0" fill="rgb(227,127,24)" rx="2" ry="2" />
<text  x="299.39" y="79.5" ></text>
</g>
<g >
<title>range (90 samples, 0.01%)</title><rect x="1183.1" y="101" width="0.1" height="15.0" fill="rgb(247,146,46)" rx="2" ry="2" />
<text  x="1186.07" y="111.5" ></text>
</g>
<g >
<title>motoko_rts::gc::mark_compact::mark_object::hb81f6542e95ca663 (408 samples, 0.04%)</title><rect x="1165.9" y="101" width="0.5" height="15.0" fill="rgb(238,127,36)" rx="2" ry="2" />
<text  x="1168.92" y="111.5" ></text>
</g>
<g >
<title>motoko_rts::memory::alloc_blob::hb6bafdc2f27d446b (207 samples, 0.02%)</title><rect x="1149.8" y="117" width="0.2" height="15.0" fill="rgb(227,127,24)" rx="2" ry="2" />
<text  x="1152.77" y="127.5" ></text>
</g>
<g >
<title>motoko_rts::memory::alloc_blob::hb6bafdc2f27d446b (1,932 samples, 0.20%)</title><rect x="229.6" y="69" width="2.4" height="15.0" fill="rgb(227,127,24)" rx="2" ry="2" />
<text  x="232.64" y="79.5" ></text>
</g>
<g >
<title>motoko_rts::gc::mark_compact::compacting_gc::h416bfa181cd1565b (13,800 samples, 1.44%)</title><rect x="1150.1" y="117" width="16.9" height="15.0" fill="rgb(227,127,24)" rx="2" ry="2" />
<text  x="1153.05" y="127.5" ></text>
</g>
<g >
<title>B_gt (780 samples, 0.08%)</title><rect x="282.4" y="85" width="1.0" height="15.0" fill="rgb(232,124,30)" rx="2" ry="2" />
<text  x="285.41" y="95.5" ></text>
</g>
<g >
<title>B_gt (2,916 samples, 0.30%)</title><rect x="1059.2" y="85" width="3.6" height="15.0" fill="rgb(232,124,30)" rx="2" ry="2" />
<text  x="1062.23" y="95.5" ></text>
</g>
<g >
<title>B_mul (522 samples, 0.05%)</title><rect x="310.3" y="69" width="0.6" height="15.0" fill="rgb(232,143,30)" rx="2" ry="2" />
<text  x="313.27" y="79.5" ></text>
</g>
<g >
<title>B_ge (576 samples, 0.06%)</title><rect x="317.6" y="85" width="0.8" height="15.0" fill="rgb(241,124,39)" rx="2" ry="2" />
<text  x="320.64" y="95.5" ></text>
</g>
<g >
<title>exists (359,172 samples, 37.49%)</title><rect x="599.3" y="101" width="442.3" height="15.0" fill="rgb(234,142,32)" rx="2" ry="2" />
<text  x="602.26" y="111.5" >exists</text>
</g>
<g >
<title>B_add (13,419 samples, 1.40%)</title><rect x="114.8" y="101" width="16.5" height="15.0" fill="rgb(253,143,53)" rx="2" ry="2" />
<text  x="117.82" y="111.5" ></text>
</g>
<g >
<title>B_mul (232 samples, 0.02%)</title><rect x="323.8" y="69" width="0.3" height="15.0" fill="rgb(232,143,30)" rx="2" ry="2" />
<text  x="326.81" y="79.5" ></text>
</g>
<g >
<title>$lambda (10,491 samples, 1.09%)</title><rect x="1170.3" y="133" width="12.9" height="15.0" fill="rgb(240,133,38)" rx="2" ry="2" />
<text  x="1173.26" y="143.5" ></text>
</g>
<g >
<title>sleb128_decode (621 samples, 0.06%)</title><rect x="1148.9" y="117" width="0.8" height="15.0" fill="rgb(250,128,49)" rx="2" ry="2" />
<text  x="1151.95" y="127.5" ></text>
</g>
<g >
<title>B_mul (87 samples, 0.01%)</title><rect x="297.5" y="117" width="0.1" height="15.0" fill="rgb(232,143,30)" rx="2" ry="2" />
<text  x="300.48" y="127.5" ></text>
</g>
<g >
<title>$lambda (4,719 samples, 0.49%)</title><rect x="291.4" y="117" width="5.8" height="15.0" fill="rgb(240,133,38)" rx="2" ry="2" />
<text  x="294.36" y="127.5" ></text>
</g>
<g >
<title>B_ge (192 samples, 0.02%)</title><rect x="323.3" y="69" width="0.3" height="15.0" fill="rgb(241,124,39)" rx="2" ry="2" />
<text  x="326.34" y="79.5" ></text>
</g>
<g >
<title>next (22,968 samples, 2.40%)</title><rect x="158.4" y="101" width="28.3" height="15.0" fill="rgb(230,219,27)" rx="2" ry="2" />
<text  x="161.44" y="111.5" >n..</text>
</g>
<g >
<title>B_mul (116 samples, 0.01%)</title><rect x="321.2" y="85" width="0.1" height="15.0" fill="rgb(232,143,30)" rx="2" ry="2" />
<text  x="324.19" y="95.5" ></text>
</g>
<g >
<title>@serialize&lt;t&gt; (33,708 samples, 3.52%)</title><rect x="22.9" y="101" width="41.5" height="15.0" fill="rgb(244,156,43)" rx="2" ry="2" />
<text  x="25.90" y="111.5" >@se..</text>
</g>
<g >
<title>B_add (1,458 samples, 0.15%)</title><rect x="307.2" y="69" width="1.8" height="15.0" fill="rgb(253,143,53)" rx="2" ry="2" />
<text  x="310.20" y="79.5" ></text>
</g>
<g >
<title>B_ge (432 samples, 0.05%)</title><rect x="309.2" y="69" width="0.5" height="15.0" fill="rgb(241,124,39)" rx="2" ry="2" />
<text  x="312.21" y="79.5" ></text>
</g>
<g >
<title>parse_idl_header (1,698 samples, 0.18%)</title><rect x="1146.9" y="117" width="2.0" height="15.0" fill="rgb(243,149,41)" rx="2" ry="2" />
<text  x="1149.86" y="127.5" ></text>
</g>
<g >
<title>motoko_rts::gc::mark_compact::mark_object::hb81f6542e95ca663 (136 samples, 0.01%)</title><rect x="265.3" y="101" width="0.1" height="15.0" fill="rgb(238,127,36)" rx="2" ry="2" />
<text  x="268.25" y="111.5" ></text>
</g>
<g >
<title>B_add (1,728 samples, 0.18%)</title><rect x="1180.0" y="85" width="2.1" height="15.0" fill="rgb(253,143,53)" rx="2" ry="2" />
<text  x="1182.96" y="95.5" ></text>
</g>
<g >
<title>B_sub (420 samples, 0.04%)</title><rect x="311.1" y="69" width="0.5" height="15.0" fill="rgb(228,124,25)" rx="2" ry="2" />
<text  x="314.05" y="79.5" ></text>
</g>
<g >
<title>B_add (5,832 samples, 0.61%)</title><rect x="1052.0" y="85" width="7.2" height="15.0" fill="rgb(253,143,53)" rx="2" ry="2" />
<text  x="1055.05" y="95.5" ></text>
</g>
<g >
<title>motoko_rts::idl::check_typearg::h7a69986705540d34 (108 samples, 0.01%)</title><rect x="1147.8" y="101" width="0.1" height="15.0" fill="rgb(241,127,39)" rx="2" ry="2" />
<text  x="1150.79" y="111.5" ></text>
</g>
<g >
<title>B_eq (94 samples, 0.01%)</title><rect x="297.3" y="117" width="0.1" height="15.0" fill="rgb(239,130,38)" rx="2" ry="2" />
<text  x="300.28" y="127.5" ></text>
</g>
<g >
<title>is_empty (1,859 samples, 0.19%)</title><rect x="297.6" y="117" width="2.3" height="15.0" fill="rgb(243,129,42)" rx="2" ry="2" />
<text  x="300.59" y="127.5" ></text>
</g>
<g >
<title>motoko_rts::memory::alloc_array::hfb4dad1bf9425cf5 (219 samples, 0.02%)</title><rect x="485.6" y="69" width="0.2" height="15.0" fill="rgb(244,127,43)" rx="2" ry="2" />
<text  x="488.57" y="79.5" ></text>
</g>
<g >
<title>B_lt (3,408 samples, 0.36%)</title><rect x="584.6" y="69" width="4.2" height="15.0" fill="rgb(226,146,24)" rx="2" ry="2" />
<text  x="587.58" y="79.5" ></text>
</g>
<g >
<title>__get_hp (84 samples, 0.01%)</title><rect x="231.8" y="53" width="0.1" height="15.0" fill="rgb(238,132,36)" rx="2" ry="2" />
<text  x="234.78" y="63.5" ></text>
</g>
<g >
<title>range (3,240 samples, 0.34%)</title><rect x="187.5" y="101" width="4.0" height="15.0" fill="rgb(247,146,46)" rx="2" ry="2" />
<text  x="190.53" y="111.5" ></text>
</g>
<g >
<title>B_sub (840 samples, 0.09%)</title><rect x="324.8" y="85" width="1.0" height="15.0" fill="rgb(228,124,25)" rx="2" ry="2" />
<text  x="327.80" y="95.5" ></text>
</g>
<g >
<title>motoko_rts::memory::alloc_blob::hb6bafdc2f27d446b (276 samples, 0.03%)</title><rect x="234.5" y="101" width="0.3" height="15.0" fill="rgb(227,127,24)" rx="2" ry="2" />
<text  x="237.50" y="111.5" ></text>
</g>
<g >
<title>text_to_buf (273 samples, 0.03%)</title><rect x="296.0" y="69" width="0.3" height="15.0" fill="rgb(242,171,41)" rx="2" ry="2" />
<text  x="299.01" y="79.5" ></text>
</g>
<g >
<title>B_add (648 samples, 0.07%)</title><rect x="322.4" y="69" width="0.8" height="15.0" fill="rgb(253,143,53)" rx="2" ry="2" />
<text  x="325.44" y="79.5" ></text>
</g>
<g >
<title>alloc_blob (152 samples, 0.02%)</title><rect x="1184.0" y="117" width="0.2" height="15.0" fill="rgb(239,128,38)" rx="2" ry="2" />
<text  x="1187.04" y="127.5" ></text>
</g>
<g >
<title>memset (111 samples, 0.01%)</title><rect x="264.9" y="101" width="0.2" height="15.0" fill="rgb(237,144,35)" rx="2" ry="2" />
<text  x="267.93" y="111.5" ></text>
</g>
<g >
<title>compacting_gc (4,507 samples, 0.47%)</title><rect x="1184.4" y="133" width="5.6" height="15.0" fill="rgb(227,149,24)" rx="2" ry="2" />
<text  x="1187.41" y="143.5" ></text>
</g>
<g >
<title>B_add (1,944 samples, 0.20%)</title><rect x="314.9" y="85" width="2.4" height="15.0" fill="rgb(253,143,53)" rx="2" ry="2" />
<text  x="317.91" y="95.5" ></text>
</g>
<g >
<title>exists (2,248 samples, 0.23%)</title><rect x="321.3" y="85" width="2.8" height="15.0" fill="rgb(234,142,32)" rx="2" ry="2" />
<text  x="324.33" y="95.5" ></text>
</g>
<g >
<title>memcpy (568 samples, 0.06%)</title><rect x="264.2" y="101" width="0.7" height="15.0" fill="rgb(248,144,48)" rx="2" ry="2" />
<text  x="267.23" y="111.5" ></text>
</g>
<g >
<title>text_to_buf (22,080 samples, 2.30%)</title><rect x="36.1" y="53" width="27.2" height="15.0" fill="rgb(242,171,41)" rx="2" ry="2" />
<text  x="39.11" y="63.5" >t..</text>
</g>
<g >
<title>memcpy (240 samples, 0.03%)</title><rect x="35.8" y="53" width="0.3" height="15.0" fill="rgb(248,144,48)" rx="2" ry="2" />
<text  x="38.81" y="63.5" ></text>
</g>
<g >
<title>leb128_decode (208 samples, 0.02%)</title><rect x="233.3" y="117" width="0.2" height="15.0" fill="rgb(250,149,49)" rx="2" ry="2" />
<text  x="236.27" y="127.5" ></text>
</g>
<g >
<title>B_add (107,244 samples, 11.19%)</title><rect x="773.5" y="85" width="132.0" height="15.0" fill="rgb(253,143,53)" rx="2" ry="2" />
<text  x="776.46" y="95.5" >B_add</text>
</g>
<g >
<title>motoko_rts::text::alloc_text_blob::h38617f18505d9ec7 (2,296 samples, 0.24%)</title><rect x="229.2" y="85" width="2.8" height="15.0" fill="rgb(242,127,41)" rx="2" ry="2" />
<text  x="232.19" y="95.5" ></text>
</g>
<g >
<title>B_mul (33,060 samples, 3.45%)</title><rect x="1000.9" y="85" width="40.7" height="15.0" fill="rgb(232,143,30)" rx="2" ry="2" />
<text  x="1003.89" y="95.5" >B_mul</text>
</g>
<g >
<title>@buffer_size&lt;t&gt; (224 samples, 0.02%)</title><rect x="23.4" y="85" width="0.2" height="15.0" fill="rgb(244,118,43)" rx="2" ry="2" />
<text  x="26.36" y="95.5" ></text>
</g>
<g >
<title>obj_idx&lt;0&gt; (486 samples, 0.05%)</title><rect x="1062.8" y="101" width="0.6" height="15.0" fill="rgb(247,139,46)" rx="2" ry="2" />
<text  x="1065.82" y="111.5" ></text>
</g>
<g >
<title>sleb128_decode (621 samples, 0.06%)</title><rect x="1148.2" y="101" width="0.7" height="15.0" fill="rgb(250,128,49)" rx="2" ry="2" />
<text  x="1151.18" y="111.5" ></text>
</g>
<g >
<title>memset (780 samples, 0.08%)</title><rect x="254.7" y="101" width="0.9" height="15.0" fill="rgb(237,144,35)" rx="2" ry="2" />
<text  x="257.67" y="111.5" ></text>
</g>
<g >
<title>B_add (324 samples, 0.03%)</title><rect x="304.3" y="85" width="0.4" height="15.0" fill="rgb(253,143,53)" rx="2" ry="2" />
<text  x="307.30" y="95.5" ></text>
</g>
<g >
<title>B_mul (6,061 samples, 0.63%)</title><rect x="523.2" y="101" width="7.5" height="15.0" fill="rgb(232,143,30)" rx="2" ry="2" />
<text  x="526.23" y="111.5" ></text>
</g>
<g >
<title>B_sub (175 samples, 0.02%)</title><rect x="277.1" y="101" width="0.2" height="15.0" fill="rgb(228,124,25)" rx="2" ry="2" />
<text  x="280.13" y="111.5" ></text>
</g>
<g >
<title>B_lt (432 samples, 0.05%)</title><rect x="309.7" y="69" width="0.6" height="15.0" fill="rgb(226,146,24)" rx="2" ry="2" />
<text  x="312.74" y="79.5" ></text>
</g>
<g >
<title>B_gt (3,888 samples, 0.41%)</title><rect x="181.9" y="85" width="4.8" height="15.0" fill="rgb(232,124,30)" rx="2" ry="2" />
<text  x="184.94" y="95.5" ></text>
</g>
<g >
<title>board (202,039 samples, 21.09%)</title><rect x="10.0" y="149" width="248.8" height="15.0" fill="rgb(249,157,49)" rx="2" ry="2" />
<text  x="13.00" y="159.5" >board</text>
</g>
<g >
<title>B_lt (192 samples, 0.02%)</title><rect x="323.6" y="69" width="0.2" height="15.0" fill="rgb(226,146,24)" rx="2" ry="2" />
<text  x="326.58" y="79.5" ></text>
</g>
<g >
<title>exists (5,052 samples, 0.53%)</title><rect x="304.7" y="85" width="6.2" height="15.0" fill="rgb(234,142,32)" rx="2" ry="2" />
<text  x="307.70" y="95.5" ></text>
</g>
<g >
<title>@serialize_go&lt;t&gt; (489 samples, 0.05%)</title><rect x="295.7" y="85" width="0.6" height="15.0" fill="rgb(244,156,43)" rx="2" ry="2" />
<text  x="298.74" y="95.5" ></text>
</g>
<g >
<title>motoko_rts::memory::alloc_blob::hb6bafdc2f27d446b (276 samples, 0.03%)</title><rect x="234.9" y="117" width="0.4" height="15.0" fill="rgb(227,127,24)" rx="2" ry="2" />
<text  x="237.92" y="127.5" ></text>
</g>
<g >
<title>next (4,894 samples, 0.51%)</title><rect x="277.3" y="101" width="6.1" height="15.0" fill="rgb(230,219,27)" rx="2" ry="2" />
<text  x="280.34" y="111.5" ></text>
</g>
<g >
<title>__get_hp (768 samples, 0.08%)</title><rect x="222.9" y="85" width="0.9" height="15.0" fill="rgb(238,132,36)" rx="2" ry="2" />
<text  x="225.89" y="95.5" ></text>
</g>
<g >
<title>leb128_decode (312 samples, 0.03%)</title><rect x="1147.4" y="101" width="0.4" height="15.0" fill="rgb(250,149,49)" rx="2" ry="2" />
<text  x="1150.41" y="111.5" ></text>
</g>
<g >
<title>B_lt (576 samples, 0.06%)</title><rect x="318.4" y="85" width="0.7" height="15.0" fill="rgb(226,146,24)" rx="2" ry="2" />
<text  x="321.35" y="95.5" ></text>
</g>
<g >
<title>B_eq (382 samples, 0.04%)</title><rect x="299.4" y="101" width="0.5" height="15.0" fill="rgb(239,130,38)" rx="2" ry="2" />
<text  x="302.41" y="111.5" ></text>
</g>
<g >
<title>B_sub (105 samples, 0.01%)</title><rect x="299.9" y="101" width="0.1" height="15.0" fill="rgb(228,124,25)" rx="2" ry="2" />
<text  x="302.91" y="111.5" ></text>
</g>
<g >
<title>memcpy (3,328 samples, 0.35%)</title><rect x="225.1" y="85" width="4.1" height="15.0" fill="rgb(248,144,48)" rx="2" ry="2" />
<text  x="228.09" y="95.5" ></text>
</g>
<g >
<title>__wasm_apply_data_relocs (981 samples, 0.10%)</title><rect x="283.6" y="117" width="1.2" height="15.0" fill="rgb(244,119,43)" rx="2" ry="2" />
<text  x="286.60" y="127.5" ></text>
</g>
<g >
<title>all (958,130 samples, 100%)</title><rect x="10.0" y="165" width="1180.0" height="15.0" fill="rgb(255,230,55)" rx="2" ry="2" />
<text  x="13.00" y="175.5" ></text>
</g>
<g >
<title>B_mul (14,413 samples, 1.50%)</title><rect x="139.1" y="101" width="17.8" height="15.0" fill="rgb(232,143,30)" rx="2" ry="2" />
<text  x="142.14" y="111.5" ></text>
</g>
<g >
<title>set_and_flip (20,944 samples, 2.19%)</title><rect x="300.0" y="117" width="25.8" height="15.0" fill="rgb(244,154,43)" rx="2" ry="2" />
<text  x="303.04" y="127.5" >s..</text>
</g>
<g >
<title>@serialize&lt;&gt; (343 samples, 0.04%)</title><rect x="1183.9" y="133" width="0.4" height="15.0" fill="rgb(242,156,41)" rx="2" ry="2" />
<text  x="1186.90" y="143.5" ></text>
</g>
<g >
<title>__wasm_call_ctors (987 samples, 0.10%)</title><rect x="283.6" y="133" width="1.2" height="15.0" fill="rgb(239,119,38)" rx="2" ry="2" />
<text  x="286.59" y="143.5" ></text>
</g>
<g >
<title>valid_moves (663,637 samples, 69.26%)</title><rect x="325.8" y="117" width="817.3" height="15.0" fill="rgb(237,120,35)" rx="2" ry="2" />
<text  x="328.83" y="127.5" >valid_moves</text>
</g>
<g >
<title>__set_hp (112 samples, 0.01%)</title><rect x="231.9" y="53" width="0.1" height="15.0" fill="rgb(238,132,36)" rx="2" ry="2" />
<text  x="234.88" y="63.5" ></text>
</g>
<g >
<title>B_eq (276 samples, 0.03%)</title><rect x="317.3" y="85" width="0.3" height="15.0" fill="rgb(239,130,38)" rx="2" ry="2" />
<text  x="320.30" y="95.5" ></text>
</g>
<g >
<title>next (17,226 samples, 1.80%)</title><rect x="1041.6" y="101" width="21.2" height="15.0" fill="rgb(230,219,27)" rx="2" ry="2" />
<text  x="1044.61" y="111.5" ></text>
</g>
<g >
<title>motoko_rts::memory::alloc_blob::hb6bafdc2f27d446b (138 samples, 0.01%)</title><rect x="1184.1" y="101" width="0.1" height="15.0" fill="rgb(227,127,24)" rx="2" ry="2" />
<text  x="1187.06" y="111.5" ></text>
</g>
<g >
<title>parse_idl_header (266 samples, 0.03%)</title><rect x="1183.6" y="117" width="0.3" height="15.0" fill="rgb(243,149,41)" rx="2" ry="2" />
<text  x="1186.56" y="127.5" ></text>
</g>
<g >
<title>@serialize&lt;t&gt; (1,617 samples, 0.17%)</title><rect x="295.2" y="101" width="2.0" height="15.0" fill="rgb(244,156,43)" rx="2" ry="2" />
<text  x="298.19" y="111.5" ></text>
</g>
<g >
<title>B_add (108 samples, 0.01%)</title><rect x="276.8" y="101" width="0.1" height="15.0" fill="rgb(253,143,53)" rx="2" ry="2" />
<text  x="279.77" y="111.5" ></text>
</g>
<g >
<title>eventually (6,756 samples, 0.71%)</title><rect x="303.2" y="101" width="8.4" height="15.0" fill="rgb(243,165,42)" rx="2" ry="2" />
<text  x="306.25" y="111.5" ></text>
</g>
<g >
<title>eventually (54,736 samples, 5.71%)</title><rect x="531.9" y="101" width="67.4" height="15.0" fill="rgb(243,165,42)" rx="2" ry="2" />
<text  x="534.85" y="111.5" >eventua..</text>
</g>
<g >
<title>compacting_gc (19,012 samples, 1.98%)</title><rect x="235.3" y="133" width="23.4" height="15.0" fill="rgb(227,149,24)" rx="2" ry="2" />
<text  x="238.26" y="143.5" >c..</text>
</g>
<g >
<title>bigint_sleb128_decode_word64 (603 samples, 0.06%)</title><rect x="1145.8" y="101" width="0.7" height="15.0" fill="rgb(237,113,36)" rx="2" ry="2" />
<text  x="1148.79" y="111.5" ></text>
</g>
<g >
<title>link_start (1,079 samples, 0.11%)</title><rect x="283.6" y="149" width="1.3" height="15.0" fill="rgb(239,129,37)" rx="2" ry="2" />
<text  x="286.58" y="159.5" ></text>
</g>
<g >
<title>leb128_decode (416 samples, 0.04%)</title><rect x="234.0" y="101" width="0.5" height="15.0" fill="rgb(250,149,49)" rx="2" ry="2" />
<text  x="236.99" y="111.5" ></text>
</g>
<g >
<title>text_concat (32,888 samples, 3.43%)</title><rect x="191.5" y="101" width="40.5" height="15.0" fill="rgb(232,171,30)" rx="2" ry="2" />
<text  x="194.52" y="111.5" >tex..</text>
</g>
<g >
<title>B_add (1,728 samples, 0.18%)</title><rect x="280.3" y="85" width="2.1" height="15.0" fill="rgb(253,143,53)" rx="2" ry="2" />
<text  x="283.28" y="95.5" ></text>
</g>
<g >
<title>alloc_array (240 samples, 0.03%)</title><rect x="485.5" y="85" width="0.3" height="15.0" fill="rgb(239,128,37)" rx="2" ry="2" />
<text  x="488.54" y="95.5" ></text>
</g>
<g >
<title>leb128_decode (104 samples, 0.01%)</title><rect x="1183.7" y="101" width="0.1" height="15.0" fill="rgb(250,149,49)" rx="2" ry="2" />
<text  x="1186.67" y="111.5" ></text>
</g>
<g >
<title>motoko_rts::types::block_size::haa6e1a3c5243bd1b (128 samples, 0.01%)</title><rect x="258.5" y="101" width="0.2" height="15.0" fill="rgb(232,127,30)" rx="2" ry="2" />
<text  x="261.52" y="111.5" ></text>
</g>
<g >
<title>B_sub (3,500 samples, 0.37%)</title><rect x="595.0" y="69" width="4.3" height="15.0" fill="rgb(228,124,25)" rx="2" ry="2" />
<text  x="597.95" y="79.5" ></text>
</g>
<g >
<title>alloc_blob (304 samples, 0.03%)</title><rect x="234.9" y="133" width="0.4" height="15.0" fill="rgb(239,128,38)" rx="2" ry="2" />
<text  x="237.89" y="143.5" ></text>
</g>
<g >
<title>motoko_rts::gc::mark_compact::mark_stack::push_mark_stack::h1f99226b92d7e984 (162 samples, 0.02%)</title><rect x="1166.2" y="85" width="0.2" height="15.0" fill="rgb(244,127,43)" rx="2" ry="2" />
<text  x="1169.22" y="95.5" ></text>
</g>
<g >
<title>motoko_rts::gc::mark_compact::bitmap::BitmapIter::next::hf82f793b43efcee0 (1,248 samples, 0.13%)</title><rect x="255.6" y="101" width="1.6" height="15.0" fill="rgb(235,127,33)" rx="2" ry="2" />
<text  x="258.63" y="111.5" ></text>
</g>
<g >
<title>alloc_blob (228 samples, 0.02%)</title><rect x="1149.7" y="133" width="0.3" height="15.0" fill="rgb(239,128,38)" rx="2" ry="2" />
<text  x="1152.75" y="143.5" ></text>
</g>
<g >
<title>@deserialize&lt;&gt; (2,288 samples, 0.24%)</title><rect x="232.0" y="133" width="2.8" height="15.0" fill="rgb(242,176,41)" rx="2" ry="2" />
<text  x="235.02" y="143.5" ></text>
</g>
<g >
<title>leb128_decode (156 samples, 0.02%)</title><rect x="1146.7" y="117" width="0.2" height="15.0" fill="rgb(250,149,49)" rx="2" ry="2" />
<text  x="1149.66" y="127.5" ></text>
</g>
<g >
<title>B_eq (24,798 samples, 2.59%)</title><rect x="492.7" y="101" width="30.5" height="15.0" fill="rgb(239,130,38)" rx="2" ry="2" />
<text  x="495.69" y="111.5" >B_eq</text>
</g>
<g >
<title>B_lt (32,256 samples, 3.37%)</title><rect x="961.2" y="85" width="39.7" height="15.0" fill="rgb(226,146,24)" rx="2" ry="2" />
<text  x="964.17" y="95.5" >B_lt</text>
</g>
<g >
<title>B_sub (280 samples, 0.03%)</title><rect x="324.2" y="69" width="0.3" height="15.0" fill="rgb(228,124,25)" rx="2" ry="2" />
<text  x="327.19" y="79.5" ></text>
</g>
<g >
<title>B_sub (945 samples, 0.10%)</title><rect x="530.7" y="101" width="1.2" height="15.0" fill="rgb(228,124,25)" rx="2" ry="2" />
<text  x="533.69" y="111.5" ></text>
</g>
<g >
<title>compacting_gc (13,818 samples, 1.44%)</title><rect x="1150.0" y="133" width="17.0" height="15.0" fill="rgb(227,149,24)" rx="2" ry="2" />
<text  x="1153.03" y="143.5" ></text>
</g>
<g >
<title>canister_init (20,099 samples, 2.10%)</title><rect x="258.8" y="149" width="24.8" height="15.0" fill="rgb(236,106,34)" rx="2" ry="2" />
<text  x="261.82" y="159.5" >c..</text>
</g>
<g >
<title>B_add (5,562 samples, 0.58%)</title><rect x="485.8" y="101" width="6.9" height="15.0" fill="rgb(253,143,53)" rx="2" ry="2" />
<text  x="488.84" y="111.5" ></text>
</g>
<g >
<title>B_sub (175 samples, 0.02%)</title><rect x="1176.8" y="101" width="0.2" height="15.0" fill="rgb(228,124,25)" rx="2" ry="2" />
<text  x="1179.80" y="111.5" ></text>
</g>
<g >
<title>memcmp (194 samples, 0.02%)</title><rect x="268.7" y="101" width="0.3" height="15.0" fill="rgb(238,144,36)" rx="2" ry="2" />
<text  x="271.72" y="111.5" ></text>
</g>
<g >
<title>init (10,469 samples, 1.09%)</title><rect x="1170.3" y="117" width="12.9" height="15.0" fill="rgb(236,161,34)" rx="2" ry="2" />
<text  x="1173.29" y="127.5" ></text>
</g>
<g >
<title>$lambda (174,319 samples, 18.19%)</title><rect x="17.3" y="133" width="214.7" height="15.0" fill="rgb(240,133,38)" rx="2" ry="2" />
<text  x="20.34" y="143.5" >$lambda</text>
</g>
<g >
<title>motoko_rts::principal_id::enc_stash::hade07e1e4d51be16 (386 samples, 0.04%)</title><rect x="270.1" y="85" width="0.5" height="15.0" fill="rgb(239,127,37)" rx="2" ry="2" />
<text  x="273.12" y="95.5" ></text>
</g>
<g >
<title>flip (3,748 samples, 0.39%)</title><rect x="319.9" y="101" width="4.6" height="15.0" fill="rgb(244,139,43)" rx="2" ry="2" />
<text  x="322.92" y="111.5" ></text>
</g>
<g >
<title>motoko_rts::memory::alloc_blob::hb6bafdc2f27d446b (207 samples, 0.02%)</title><rect x="1147.9" y="101" width="0.3" height="15.0" fill="rgb(227,127,24)" rx="2" ry="2" />
<text  x="1150.93" y="111.5" ></text>
</g>
<g >
<title>motoko_rts::memory::alloc_blob::hb6bafdc2f27d446b (138 samples, 0.01%)</title><rect x="1189.8" y="101" width="0.1" height="15.0" fill="rgb(227,127,24)" rx="2" ry="2" />
<text  x="1192.75" y="111.5" ></text>
</g>
<g >
<title>B_add (11,502 samples, 1.20%)</title><rect x="564.5" y="69" width="14.1" height="15.0" fill="rgb(253,143,53)" rx="2" ry="2" />
<text  x="567.47" y="79.5" ></text>
</g>
<g >
<title>reset (18,547 samples, 1.94%)</title><rect x="1167.2" y="149" width="22.8" height="15.0" fill="rgb(237,165,35)" rx="2" ry="2" />
<text  x="1170.16" y="159.5" >r..</text>
</g>
<g >
<title>opponent (62,304 samples, 6.50%)</title><rect x="1063.4" y="101" width="76.8" height="15.0" fill="rgb(241,199,39)" rx="2" ry="2" />
<text  x="1066.42" y="111.5" >opponent</text>
</g>
<g >
<title>memcpy (296 samples, 0.03%)</title><rect x="64.1" y="85" width="0.3" height="15.0" fill="rgb(248,144,48)" rx="2" ry="2" />
<text  x="67.05" y="95.5" ></text>
</g>
<g >
<title>place (716,366 samples, 74.77%)</title><rect x="284.9" y="149" width="882.3" height="15.0" fill="rgb(252,165,52)" rx="2" ry="2" />
<text  x="287.91" y="159.5" >place</text>
</g>
<g >
<title>B_eq (396 samples, 0.04%)</title><rect x="302.7" y="101" width="0.4" height="15.0" fill="rgb(239,130,38)" rx="2" ry="2" />
<text  x="305.65" y="111.5" ></text>
</g>
<g >
<title>motoko_rts::memory::alloc_blob::hb6bafdc2f27d446b (138 samples, 0.01%)</title><rect x="265.4" y="101" width="0.2" height="15.0" fill="rgb(227,127,24)" rx="2" ry="2" />
<text  x="268.42" y="111.5" ></text>
</g>
<g >
<title>B_add (7,776 samples, 0.81%)</title><rect x="172.4" y="85" width="9.5" height="15.0" fill="rgb(253,143,53)" rx="2" ry="2" />
<text  x="175.36" y="95.5" ></text>
</g>
<g >
<title>motoko_rts::memory::alloc_blob::hb6bafdc2f27d446b (552 samples, 0.06%)</title><rect x="257.8" y="101" width="0.7" height="15.0" fill="rgb(227,127,24)" rx="2" ry="2" />
<text  x="260.84" y="111.5" ></text>
</g>
<g >
<title>motoko_rts::gc::mark_compact::bitmap::BitmapIter::next::hf82f793b43efcee0 (612 samples, 0.06%)</title><rect x="1165.2" y="101" width="0.7" height="15.0" fill="rgb(235,127,33)" rx="2" ry="2" />
<text  x="1168.16" y="111.5" ></text>
</g>
<g >
<title>memcpy (14,144 samples, 1.48%)</title><rect x="45.9" y="37" width="17.4" height="15.0" fill="rgb(248,144,48)" rx="2" ry="2" />
<text  x="48.88" y="47.5" ></text>
</g>
<g >
<title>@buffer_size&lt;t&gt; (168 samples, 0.02%)</title><rect x="295.5" y="85" width="0.2" height="15.0" fill="rgb(244,118,43)" rx="2" ry="2" />
<text  x="298.53" y="95.5" ></text>
</g>
<g >
<title>opponent (1,056 samples, 0.11%)</title><rect x="324.5" y="101" width="1.3" height="15.0" fill="rgb(241,199,39)" rx="2" ry="2" />
<text  x="327.53" y="111.5" ></text>
</g>
<g >
<title>$lambda (38,124 samples, 3.98%)</title><rect x="17.5" y="117" width="46.9" height="15.0" fill="rgb(240,133,38)" rx="2" ry="2" />
<text  x="20.46" y="127.5" >$lam..</text>
</g>
<g >
<title>@deserialize&lt;&gt; (572 samples, 0.06%)</title><rect x="1183.2" y="133" width="0.7" height="15.0" fill="rgb(242,176,41)" rx="2" ry="2" />
<text  x="1186.18" y="143.5" ></text>
</g>
<g >
<title>alloc_blob (608 samples, 0.06%)</title><rect x="63.3" y="85" width="0.8" height="15.0" fill="rgb(239,128,38)" rx="2" ry="2" />
<text  x="66.30" y="95.5" ></text>
</g>
<g >
<title>next (4,894 samples, 0.51%)</title><rect x="1177.0" y="101" width="6.0" height="15.0" fill="rgb(230,219,27)" rx="2" ry="2" />
<text  x="1180.02" y="111.5" ></text>
</g>
<g >
<title>idl_sub_buf_init (104 samples, 0.01%)</title><rect x="233.1" y="117" width="0.1" height="15.0" fill="rgb(236,184,34)" rx="2" ry="2" />
<text  x="236.09" y="127.5" ></text>
</g>
<g >
<title>memcpy (222 samples, 0.02%)</title><rect x="296.9" y="85" width="0.3" height="15.0" fill="rgb(248,144,48)" rx="2" ry="2" />
<text  x="299.90" y="95.5" ></text>
</g>
<g >
<title>@deserialize_go&lt;I&gt; (1,215 samples, 0.13%)</title><rect x="1145.0" y="117" width="1.5" height="15.0" fill="rgb(243,176,42)" rx="2" ry="2" />
<text  x="1148.03" y="127.5" ></text>
</g>
<g >
<title>B_mul (145 samples, 0.02%)</title><rect x="276.9" y="101" width="0.2" height="15.0" fill="rgb(232,143,30)" rx="2" ry="2" />
<text  x="279.95" y="111.5" ></text>
</g>
<g >
<title>init (10,469 samples, 1.09%)</title><rect x="270.6" y="117" width="12.9" height="15.0" fill="rgb(236,161,34)" rx="2" ry="2" />
<text  x="273.61" y="127.5" ></text>
</g>
<g >
<title>motoko_rts::memory::alloc_blob::hb6bafdc2f27d446b (552 samples, 0.06%)</title><rect x="63.4" y="69" width="0.7" height="15.0" fill="rgb(227,127,24)" rx="2" ry="2" />
<text  x="66.37" y="79.5" ></text>
</g>
<g >
<title>compacting_gc (5,087 samples, 0.53%)</title><rect x="259.4" y="133" width="6.2" height="15.0" fill="rgb(227,149,24)" rx="2" ry="2" />
<text  x="262.37" y="143.5" ></text>
</g>
<g >
<title>B_mul (145 samples, 0.02%)</title><rect x="1176.6" y="101" width="0.2" height="15.0" fill="rgb(232,143,30)" rx="2" ry="2" />
<text  x="1179.63" y="111.5" ></text>
</g>
<g >
<title>B_add (108 samples, 0.01%)</title><rect x="1176.4" y="101" width="0.2" height="15.0" fill="rgb(253,143,53)" rx="2" ry="2" />
<text  x="1179.45" y="111.5" ></text>
</g>
<g >
<title>B_eq (174 samples, 0.02%)</title><rect x="309.0" y="69" width="0.2" height="15.0" fill="rgb(239,130,38)" rx="2" ry="2" />
<text  x="312.00" y="79.5" ></text>
</g>
<g >
<title>alloc_blob (456 samples, 0.05%)</title><rect x="296.3" y="85" width="0.6" height="15.0" fill="rgb(239,128,38)" rx="2" ry="2" />
<text  x="299.34" y="95.5" ></text>
</g>
<g >
<title>opponent (352 samples, 0.04%)</title><rect x="324.1" y="85" width="0.4" height="15.0" fill="rgb(241,199,39)" rx="2" ry="2" />
<text  x="327.10" y="95.5" ></text>
</g>
<g >
<title>motoko_rts::types::block_size::haa6e1a3c5243bd1b (96 samples, 0.01%)</title><rect x="1166.9" y="101" width="0.1" height="15.0" fill="rgb(232,127,30)" rx="2" ry="2" />
<text  x="1169.93" y="111.5" ></text>
</g>
<g >
<title>obj_idx&lt;0&gt; (648 samples, 0.07%)</title><rect x="186.7" y="101" width="0.8" height="15.0" fill="rgb(247,139,46)" rx="2" ry="2" />
<text  x="189.73" y="111.5" ></text>
</g>
<g >
<title>init (14,550 samples, 1.52%)</title><rect x="265.6" y="133" width="18.0" height="15.0" fill="rgb(236,161,34)" rx="2" ry="2" />
<text  x="268.63" y="143.5" ></text>
</g>
<g >
<title>motoko_rts::gc::mark_compact::compacting_gc::h416bfa181cd1565b (18,988 samples, 1.98%)</title><rect x="235.3" y="117" width="23.4" height="15.0" fill="rgb(227,127,24)" rx="2" ry="2" />
<text  x="238.29" y="127.5" >m..</text>
</g>
<g >
<title>B_mul (696 samples, 0.07%)</title><rect x="319.1" y="85" width="0.8" height="15.0" fill="rgb(232,143,30)" rx="2" ry="2" />
<text  x="322.06" y="95.5" ></text>
</g>
<g >
<title>B_ge (3,408 samples, 0.36%)</title><rect x="580.4" y="69" width="4.2" height="15.0" fill="rgb(241,124,39)" rx="2" ry="2" />
<text  x="583.38" y="79.5" ></text>
</g>
<g >
<title>B_add (324 samples, 0.03%)</title><rect x="320.8" y="85" width="0.4" height="15.0" fill="rgb(253,143,53)" rx="2" ry="2" />
<text  x="323.79" y="95.5" ></text>
</g>
<g >
<title>B_sub (49,560 samples, 5.17%)</title><rect x="1079.1" y="85" width="61.1" height="15.0" fill="rgb(228,124,25)" rx="2" ry="2" />
<text  x="1082.12" y="95.5" >B_sub</text>
</g>
<g >
<title>motoko_rts::gc::mark_compact::bitmap::BitmapIter::next::hf82f793b43efcee0 (150 samples, 0.02%)</title><rect x="1189.4" y="101" width="0.2" height="15.0" fill="rgb(235,127,33)" rx="2" ry="2" />
<text  x="1192.40" y="111.5" ></text>
</g>
<g >
<title>motoko_rts::gc::mark_compact::bitmap::BitmapIter::next::hf82f793b43efcee0 (150 samples, 0.02%)</title><rect x="265.1" y="101" width="0.2" height="15.0" fill="rgb(235,127,33)" rx="2" ry="2" />
<text  x="268.07" y="111.5" ></text>
</g>
<g >
<title>B_gt (780 samples, 0.08%)</title><rect x="1182.1" y="85" width="0.9" height="15.0" fill="rgb(232,124,30)" rx="2" ry="2" />
<text  x="1185.09" y="95.5" ></text>
</g>
<g >
<title>motoko_rts::gc::mark_compact::mark_object::hb81f6542e95ca663 (136 samples, 0.01%)</title><rect x="1189.6" y="101" width="0.2" height="15.0" fill="rgb(238,127,36)" rx="2" ry="2" />
<text  x="1192.59" y="111.5" ></text>
</g>
<g >
<title>B_mul (87 samples, 0.01%)</title><rect x="303.1" y="101" width="0.1" height="15.0" fill="rgb(232,143,30)" rx="2" ry="2" />
<text  x="306.14" y="111.5" ></text>
</g>
<g >
<title>Array_init (3,039 samples, 0.32%)</title><rect x="482.1" y="101" width="3.7" height="15.0" fill="rgb(236,150,34)" rx="2" ry="2" />
<text  x="485.09" y="111.5" ></text>
</g>
<g >
<title>exists (39,896 samples, 4.16%)</title><rect x="544.7" y="85" width="49.1" height="15.0" fill="rgb(234,142,32)" rx="2" ry="2" />
<text  x="547.71" y="95.5" >exists</text>
</g>
<g >
<title>int_from_i32 (135 samples, 0.01%)</title><rect x="1146.4" y="85" width="0.1" height="15.0" fill="rgb(241,164,39)" rx="2" ry="2" />
<text  x="1149.36" y="95.5" ></text>
</g>
<g >
<title>@serialize_go&lt;t&gt; (32,204 samples, 3.36%)</title><rect x="23.6" y="85" width="39.7" height="15.0" fill="rgb(244,156,43)" rx="2" ry="2" />
<text  x="26.64" y="95.5" >@se..</text>
</g>
<g >
<title>motoko_rts::gc::mark_compact::mark_object::hb81f6542e95ca663 (544 samples, 0.06%)</title><rect x="257.2" y="101" width="0.6" height="15.0" fill="rgb(238,127,36)" rx="2" ry="2" />
<text  x="260.17" y="111.5" ></text>
</g>
<g >
<title>exists (6,780 samples, 0.71%)</title><rect x="311.6" y="101" width="8.3" height="15.0" fill="rgb(234,142,32)" rx="2" ry="2" />
<text  x="314.57" y="111.5" ></text>
</g>
<g >
<title>blob_of_principal (2,332 samples, 0.24%)</title><rect x="267.7" y="117" width="2.9" height="15.0" fill="rgb(228,110,25)" rx="2" ry="2" />
<text  x="270.74" y="127.5" ></text>
</g>
<g >
<title>range (90 samples, 0.01%)</title><rect x="283.4" y="101" width="0.1" height="15.0" fill="rgb(247,146,46)" rx="2" ry="2" />
<text  x="286.39" y="111.5" ></text>
</g>
<g >
<title>Array_init (1,013 samples, 0.11%)</title><rect x="266.5" y="117" width="1.2" height="15.0" fill="rgb(236,150,34)" rx="2" ry="2" />
<text  x="269.45" y="127.5" ></text>
</g>
<g >
<title>motoko_rts::memory::alloc_blob::hb6bafdc2f27d446b (138 samples, 0.01%)</title><rect x="269.0" y="101" width="0.2" height="15.0" fill="rgb(227,127,24)" rx="2" ry="2" />
<text  x="272.02" y="111.5" ></text>
</g>
<g >
<title>motoko_rts::memory::alloc_blob::hb6bafdc2f27d446b (138 samples, 0.01%)</title><rect x="269.9" y="85" width="0.2" height="15.0" fill="rgb(227,127,24)" rx="2" ry="2" />
<text  x="272.95" y="95.5" ></text>
</g>
<g >
<title>__set_hp (1,024 samples, 0.11%)</title><rect x="223.8" y="85" width="1.3" height="15.0" fill="rgb(238,132,36)" rx="2" ry="2" />
<text  x="226.83" y="95.5" ></text>
</g>
<g >
<title>B_ge (30,600 samples, 3.19%)</title><rect x="923.5" y="85" width="37.7" height="15.0" fill="rgb(241,124,39)" rx="2" ry="2" />
<text  x="926.48" y="95.5" >B_ge</text>
</g>
<g >
<title>motoko_rts::gc::mark_compact::mark_stack::push_mark_stack::h1f99226b92d7e984 (216 samples, 0.02%)</title><rect x="257.6" y="85" width="0.2" height="15.0" fill="rgb(244,127,43)" rx="2" ry="2" />
<text  x="260.57" y="95.5" ></text>
</g>
<g >
<title>opponent (4,400 samples, 0.46%)</title><rect x="593.8" y="85" width="5.5" height="15.0" fill="rgb(241,199,39)" rx="2" ry="2" />
<text  x="596.85" y="95.5" ></text>
</g>
<g >
<title>text_to_buf (31,916 samples, 3.33%)</title><rect x="24.0" y="69" width="39.3" height="15.0" fill="rgb(242,171,41)" rx="2" ry="2" />
<text  x="27.00" y="79.5" >tex..</text>
</g>
<g >
<title>motoko_rts::memory::alloc_blob::hb6bafdc2f27d446b (414 samples, 0.04%)</title><rect x="1166.4" y="101" width="0.5" height="15.0" fill="rgb(227,127,24)" rx="2" ry="2" />
<text  x="1169.42" y="111.5" ></text>
</g>
<g >
<title>opponent (528 samples, 0.06%)</title><rect x="310.9" y="85" width="0.7" height="15.0" fill="rgb(241,199,39)" rx="2" ry="2" />
<text  x="313.92" y="95.5" ></text>
</g>
</g>
</svg>
